<?xml version="1.0" encoding="iso-8859-1"?>
<!-- Generator: Adobe Illustrator 19.0.0, SVG Export Plug-In . SVG Version: 6.00 Build 0)  -->
<svg version="1.1" id="Layer_1" xmlns="http://www.w3.org/2000/svg" xmlns:xlink="http://www.w3.org/1999/xlink" x="0px" y="0px"
	 viewBox="0 0 485 485" style="enable-background:new 0 0 485 485;" xml:space="preserve">
<g>
	<g>
		<path d="M444.6,0H40.4C18.1,0,0,18.1,0,40.4v404.2C0,466.9,18.1,485,40.4,485h404.2c22.3,0,40.4-18.1,40.4-40.4V40.4
			C485,18.1,466.9,0,444.6,0z M458.1,444.6c0,7.4-6,13.5-13.5,13.5H256V249.8c0-7.4-6-13.5-13.5-13.5c-7.4,0-13.5,6-13.5,13.5v208.3
			H40.4c-7.4,0-13.5-6-13.5-13.5V356h25.7c7.4,0,13.5-6,13.5-13.5s-6-13.5-13.5-13.5H26.9v-26.9h52.7c7.4,0,13.5-6,13.5-13.5
			c0-7.4-6-13.5-13.5-13.5H26.9V40.4c0-7.4,6-13.5,13.5-13.5h404.2c7.4,0,13.5,6,13.5,13.5V444.6z"/>
	</g>
</g>
<g>
	<g>
		<path d="M382.5,86.4c-1.1-3.4-3.6-6.1-6.8-7.7C334.3,59.3,288.2,49,242.5,49s-91.8,10.3-133.2,29.8c-3.2,1.5-5.7,4.3-6.9,7.6
			c-1.2,3.4-1,7.1,0.5,10.3l41.5,88.3c1.5,3.2,4.3,5.7,7.6,6.9c3.4,1.2,7.1,1,10.3-0.5c24.9-11.7,51.6-17.9,80.2-17.9
			c27.5,0,55.2,6.2,80.1,17.9c1.8,0.9,5.7,1.9,10.3,0.5c3.4-1.1,6.1-3.7,7.6-6.9L382,96.7C383.5,93.5,383.7,89.8,382.5,86.4z
			 M321.8,161.7c-21-8.3-43.3-13.2-65.8-14.7v-40.1c0-7.4-6-13.5-13.5-13.5c-7.4,0-13.5,6-13.5,13.5V147
			c-22.5,1.4-44.8,6.4-65.8,14.7l-30.1-64c34.5-14.3,72.1-21.8,109.4-21.8s74.8,7.5,109.4,21.8L321.8,161.7z"/>
	</g>
</g>
<g>
</g>
<g>
</g>
<g>
</g>
<g>
</g>
<g>
</g>
<g>
</g>
<g>
</g>
<g>
</g>
<g>
</g>
<g>
</g>
<g>
</g>
<g>
</g>
<g>
</g>
<g>
</g>
<g>
</g>
</svg>
