<svg id="Layer_1" data-name="Layer 1" xmlns="http://www.w3.org/2000/svg" viewBox="0 0 115.96 122.88"><title>turn-top-arrow</title><path d="M0,122.88H37.81c18.66,0,32.36-2.57,42.16-11.19,10-8.84,14.31-22.31,13.41-43.51h0V49.36h16.88c2.25-.11,3.85-.87,4.77-2.27,2.35-3.52-.43-7-2.69-9.53-6.5-7.3-25.05-31.36-28.54-35.44a5.58,5.58,0,0,0-8.76,0C71.7,6.09,54,29.33,47.18,36.84c-2.38,2.66-5.89,6.43-3.34,10.25.93,1.4,2.53,2.16,4.77,2.27h19V68.18l0,.55c.61,13-.91,20.28-4.74,23.65C58.81,96,50.34,97.14,37.81,97.14H0v25.74Z"/></svg>