<?xml version="1.0" encoding="iso-8859-1"?>
<!-- Generator: Adobe Illustrator 19.0.0, SVG Export Plug-In . SVG Version: 6.00 Build 0)  -->
<svg version="1.1" id="Layer_1" xmlns="http://www.w3.org/2000/svg" xmlns:xlink="http://www.w3.org/1999/xlink" x="0px" y="0px"
	 viewBox="0 0 508 508" style="enable-background:new 0 0 508 508;" xml:space="preserve">
<path style="fill:#FF312E;" d="M504,378.8c0,68.8-56.4,125.2-125.2,125.2H129.2C60.4,504,4,448,4,378.8V129.6C4,60.8,60.4,4,129.2,4
	h249.6C447.6,4,504,60.4,504,129.6V378.8z"/>
<path style="fill:#FFFFFF;" d="M406.4,189.2c0,0-2.8-22.4-12-32.4c-12-12.8-25.2-13.6-31.2-14.4c-44-3.2-109.2-3.6-109.2-3.6l0,0
	c0,0-65.6,0.4-109.2,3.6c-6,0.8-19.2,1.2-31.2,14c-9.2,10-11.6,32.4-11.6,32.4s-2.4,26.4-2.4,52.8v24.8c0,26.4,2.4,52.8,2.4,52.8
	s2.8,22.4,12,32.4c12,12.8,27.2,12.4,34.4,14c24.8,2.4,106,3.2,106,3.2s65.6,0,109.2-3.2c6-0.8,19.2-0.8,31.2-13.6
	c9.2-10,11.6-32.4,11.6-32.4s2.4-26.4,2.4-52.8V242C408.8,215.6,406.4,189.2,406.4,189.2 M222,296.4v-91.2l84,45.6L222,296.4z"/>
<path d="M378.8,508H129.2C58,508,0,450,0,378.4V129.2C0,58,58,0,129.2,0h249.6C450,0,508,58,508,128.8v249.6
	C508,450,450,508,378.8,508z M129.2,8C62.4,8,8,62.4,8,129.2v249.6c0,66.8,54.4,121.6,121.2,121.6h249.6
	c66.8,0,121.2-54.4,121.2-121.6V129.2C500,62.4,445.6,8.4,378.8,8.4H129.2V8z"/>
<path d="M370,484H138c-62,0-114-52.4-114-114.4v-232C24,76,76,24,138,24h231.2c2.4,0,4,1.6,4,4s-1.6,4-4,4H138
	C80.4,32,32,80.4,32,137.6v232C32,427.2,80.8,476,138,476h232c57.6,0,106-48.8,106-106.4V258c0-2.4,1.6-4,4-4s4,1.6,4,4v112
	C484,431.6,432,484,370,484z"/>
<path d="M446.8,64.8c-1.2,0-2-0.4-2.8-1.2c-20.4-20.4-47.6-32-75.2-32c-2.4,0-4-1.6-4-4s1.6-4,4-4c29.6,0,59.2,12.4,80.8,34
	c1.6,1.6,1.6,4,0,5.6C449.2,64.4,448,64.8,446.8,64.8z"/>
<path d="M480,234c-2.4,0-4-1.6-4-4v-59.2c0-2.4,1.6-4,4-4s4,1.6,4,4V230C484,232.4,482.4,234,480,234z"/>
<path d="M221.6,300.4c-0.8,0-1.6,0-2-0.4c-1.2-0.8-2-2-2-3.6v-91.2c0-1.6,0.8-2.8,2-3.6s2.8-0.8,4,0l32.4,17.6
	c2,1.2,2.8,3.6,1.6,5.6c-1.2,2-3.6,2.8-5.6,1.6L225.6,212v78l78.4-42.4c2-1.2,4.4-0.4,5.6,1.6s0.4,4.4-1.6,5.6L223.6,300
	C222.8,300.4,222.4,300.4,221.6,300.4z"/>
<path d="M253.6,372.8L253.6,372.8c-3.2,0-81.6-0.8-106.4-3.2c-1.6-0.4-2.8-0.4-4.4-0.8c-8-1.2-21.6-2.8-32.4-14.4
	c-10-10.8-12.4-33.6-12.8-34.4c0-0.4-2.4-26.8-2.4-53.2V242c0-26,2.4-52.8,2.4-53.2c0-1.2,2.8-24,13.2-34.8
	c12-13.2,25.2-14.4,32-15.2h1.2c43.6-3.2,108.8-3.6,109.6-3.6s66.4,0.4,109.6,3.6h1.6c7.2,0.8,20,2,32,15.2
	c10,10.8,12.8,33.6,12.8,34.8c0,0.4,2.8,27.2,2.8,53.2v24.8c0,26.4-2.8,52.8-2.8,53.2c0,1.2-3.2,24-13.2,34.8
	c-11.6,12.8-24.8,14-31.6,14.8c-0.8,0-1.2,0-2,0.4C320,372.4,254.4,372.8,253.6,372.8z M254,142.8c-0.8,0-65.6,0.4-108.8,3.6H144
	c-6.4,0.8-17.2,2-27.2,12.8c-6.8,7.2-10.4,24-11.2,30c0,0-2.4,26.4-2.4,52V266c0,26,2.4,52,2.4,52.4c0,0,2.4,21.2,10.4,30
	c8.8,9.6,20.4,11.2,27.6,12c1.6,0.4,3.2,0.4,4.4,0.8c24,2.4,103.6,3.2,105.2,3.2s66,0,108.8-3.2c0.4,0,1.2,0,2-0.4
	c6.4-0.8,16.8-1.6,26.4-12.4c8.4-8.8,11.2-30,11.2-30s2.8-26.4,2.8-52V242c0-26-2.4-52-2.8-52.4c0,0-2.4-21.2-10.8-30
	c-10-10.8-20.8-12-27.2-12.4H362C319.6,143.6,254.4,142.8,254,142.8z"/>
<g>
</g>
<g>
</g>
<g>
</g>
<g>
</g>
<g>
</g>
<g>
</g>
<g>
</g>
<g>
</g>
<g>
</g>
<g>
</g>
<g>
</g>
<g>
</g>
<g>
</g>
<g>
</g>
<g>
</g>
</svg>
