<?xml version="1.0" encoding="iso-8859-1"?>
<!-- Generator: Adobe Illustrator 19.0.0, SVG Export Plug-In . SVG Version: 6.00 Build 0)  -->
<svg version="1.1" id="Layer_1" xmlns="http://www.w3.org/2000/svg" xmlns:xlink="http://www.w3.org/1999/xlink" x="0px" y="0px"
	 viewBox="0 0 492 492" style="enable-background:new 0 0 492 492;" xml:space="preserve">
<path style="fill:#0EE0B8;" d="M402,0H90C76.4,0,66,10.4,66,24v320l154.4,148H402c13.6,0,24-10.4,24-24V24C426,10.4,415.6,0,402,0z"
	/>
<path style="fill:#282827;" d="M402,0H90C76.4,0,66,10.4,66,24v320l154.4,148H402c13.6,0,24-10.4,24-24V24C426,10.4,415.6,0,402,0z"
	/>
<path style="fill:#212121;" d="M426,383.2V24c0-13.6-10.4-24-24-24H90C76.4,0,66,10.4,66,24"/>
<path d="M426,383.2V24c0-13.6-10.4-24-24-24H205.2"/>
<path style="fill:#212121;" d="M200.4,348.8v120c0,1.6,0,3.2,0.8,4.8l18.4,17.6c1.6,0,2.4,0.8,4,0.8h125.6L200.4,348.8L200.4,348.8z
	"/>
<path d="M200.4,348.8v120c0,1.6,0,3.2,0.8,4.8l18.4,17.6c1.6,0,2.4,0.8,4,0.8h64l-72-120L200.4,348.8z"/>
<path style="fill:#F73974;" d="M220.4,491.2L220.4,491.2v-124c0-13.6-10.4-24-24-24H66L220.4,491.2z"/>
<polyline style="fill:#ED266E;" points="66,344 220.4,491.2 220.4,491.2 220.4,368 "/>
<path style="fill:#707070;" d="M77.2,344L77.2,344V24c0-13.6,10.4-24,24-24H90.8c-13.6,0-24,10.4-24,24v320l0,0H77.2z"/>
<path style="fill:#F73974;" d="M213.2,138.4c0-4-3.2-7.2-7.2-7.2s-7.2,3.2-7.2,7.2v116c-3.2,3.2-8.8,8-16,16c-4,4-25.6,32-18.4,48.8
	c4,8.8,24.8,5.6,36.8-6.4c7.2-7.2,11.2-16.8,11.2-24.8l0,0V138.4H213.2z"/>
<path style="fill:#ED266E;" d="M213.2,243.2V138.4c0-4-3.2-7.2-7.2-7.2s-7.2,3.2-7.2,7.2v52.8L213.2,243.2z"/>
<path style="fill:#F73974;" d="M323.6,115.2c0-4-3.2-7.2-7.2-7.2s-7.2,3.2-7.2,7.2v116c-3.2,3.2-8.8,8-16,16c-4,4-25.6,32-18.4,48.8
	c4,8.8,24.8,5.6,36.8-6.4c8-7.2,11.2-16.8,11.2-24.8l0,0V115.2H323.6z"/>
<path style="fill:#ED266E;" d="M323.6,263.2v-148c0-4-3.2-7.2-7.2-7.2s-7.2,3.2-7.2,7.2V172L323.6,263.2z"/>
<g>
	<polygon style="fill:#DD0772;" points="198.8,192.8 213.2,207.2 213.2,163.2 198.8,176.8 	"/>
	<polygon style="fill:#DD0772;" points="310,179.2 323.6,192.8 323.6,126.4 310,140 	"/>
</g>
<path style="fill:#F73974;" d="M326.8,91.2c-0.8-0.8-2.4-0.8-4-0.8L198,124c-2.4,0.8-3.2,2.4-3.2,4.8V188c0,1.6,0.8,3.2,1.6,4
	s1.6,0.8,3.2,0.8c0.8,0,0.8,0,1.6,0L326,159.2c2.4-0.8,3.2-2.4,3.2-4.8V95.2C328.4,93.6,327.6,92,326.8,91.2z"/>
<path style="fill:#ED266E;" d="M325.2,159.2c2.4-0.8,3.2-2.4,3.2-4.8V95.2c0-1.6-0.8-3.2-1.6-4c-0.8-0.8-2.4-0.8-4-0.8L198,124
	c-2.4,0.8-3.2,2.4-3.2,4.8"/>
<path style="fill:#DD0772;" d="M325.2,159.2c2.4-0.8,3.2-2.4,3.2-4.8V95.2c0-1.6-0.8-3.2-1.6-4"/>
<g>
	<path style="fill:#ED266E;" d="M164.4,319.2c4,8.8,24.8,5.6,36.8-6.4c7.2-7.2,11.2-16.8,11.2-24.8l0,0"/>
	<path style="fill:#ED266E;" d="M275.6,296c4,8.8,24.8,5.6,36.8-6.4c8-7.2,11.2-16.8,11.2-24.8l0,0"/>
</g>
<g>
</g>
<g>
</g>
<g>
</g>
<g>
</g>
<g>
</g>
<g>
</g>
<g>
</g>
<g>
</g>
<g>
</g>
<g>
</g>
<g>
</g>
<g>
</g>
<g>
</g>
<g>
</g>
<g>
</g>
</svg>
