<?xml version="1.0" encoding="iso-8859-1"?>
<!-- Generator: Adobe Illustrator 19.1.0, SVG Export Plug-In . SVG Version: 6.00 Build 0)  -->
<svg version="1.1" id="Capa_1" xmlns="http://www.w3.org/2000/svg" xmlns:xlink="http://www.w3.org/1999/xlink" x="0px" y="0px"
	 viewBox="0 0 456.29 456.29" style="enable-background:new 0 0 456.29 456.29;" xml:space="preserve">
<g>
	<g id="XMLID_17_">
		<g>
			<path style="fill:#FFCC73;" d="M331.82,44.45c3.12,1.63,5.25,4.89,5.25,8.65c0,5.37-4.37,9.75-9.75,9.75
				c-1.35,0-2.63-0.28-3.8-0.77c5-3.11,8.3-8.64,8.3-14.92V44.45z"/>
			<path style="fill:#FFCC73;" d="M322.82,44.45v2.71c0,3.48-2.07,6.48-5.07,7.82c-0.12-0.61-0.18-1.24-0.18-1.88
				C317.57,49.34,319.7,46.08,322.82,44.45z"/>
			<path style="fill:#FFCC73;" d="M273.91,44.45c3.12,1.63,5.25,4.89,5.25,8.65c0,5.37-4.38,9.75-9.75,9.75
				c-1.35,0-2.64-0.28-3.8-0.77c4.99-3.11,8.3-8.64,8.3-14.92V44.45z"/>
			<path style="fill:#FFCC73;" d="M264.91,44.45v2.71c0,3.48-2.07,6.48-5.07,7.82c-0.12-0.61-0.19-1.24-0.19-1.88
				C259.65,49.34,261.79,46.08,264.91,44.45z"/>
			<path style="fill:#FFCC73;" d="M216,44.45c3.11,1.63,5.25,4.89,5.25,8.65c0,5.37-4.38,9.75-9.76,9.75c-1.35,0-2.63-0.28-3.8-0.77
				c5-3.11,8.31-8.64,8.31-14.92V44.45z"/>
			<path style="fill:#FFCC73;" d="M207,44.45v2.71c0,3.48-2.08,6.48-5.07,7.82c-0.12-0.61-0.19-1.24-0.19-1.88
				C201.74,49.34,203.88,46.08,207,44.45z"/>
			<path style="fill:#FFCC73;" d="M158.08,44.45c3.12,1.63,5.25,4.89,5.25,8.65c0,5.37-4.37,9.75-9.75,9.75
				c-1.35,0-2.63-0.28-3.8-0.77c4.99-3.11,8.3-8.64,8.3-14.92V44.45z"/>
			<path style="fill:#FFCC73;" d="M149.08,44.45v2.71c0,3.48-2.07,6.48-5.07,7.82c-0.12-0.61-0.19-1.24-0.19-1.88
				C143.82,49.34,145.96,46.08,149.08,44.45z"/>
			<path style="fill:#6BCE95;" d="M378.61,33.14V426c0,11.74-9.55,21.29-21.29,21.29H130.39c-11.74,0-21.3-9.55-21.3-21.29V42.27
				v-9.13c0-4.14-1.25-7.99-3.4-11.2h43.39v12.97c-8.17,2.02-14.26,9.4-14.26,18.19c0,10.34,8.42,18.75,18.76,18.75
				s18.75-8.41,18.75-18.75c0-8.79-6.08-16.16-14.25-18.19V21.94H207v12.97c-8.18,2.02-14.26,9.4-14.26,18.19
				c0,10.34,8.41,18.75,18.75,18.75c10.34,0,18.76-8.41,18.76-18.75c0-8.79-6.09-16.16-14.25-18.19V21.94h48.91v12.97
				c-8.17,2.02-14.26,9.4-14.26,18.19c0,10.34,8.42,18.75,18.76,18.75s18.75-8.41,18.75-18.75c0-8.79-6.08-16.16-14.25-18.19V21.94
				h48.91v12.97c-8.17,2.02-14.25,9.4-14.25,18.19c0,10.34,8.41,18.75,18.75,18.75s18.75-8.41,18.75-18.75
				c0-8.79-6.08-16.16-14.25-18.19V21.94h35.58C373.58,21.94,378.61,26.97,378.61,33.14z M320.83,217.27v-9H166.88v9H320.83z
				 M320.83,187.48v-9H166.88v9H320.83z"/>
			<path style="fill:#60A57C;" d="M83.97,425.99c0,7.61,2.83,14.57,7.48,19.9c-8.03-3.05-13.77-10.81-13.77-19.9V33.14
				c0-5.63,4.19-10.3,9.62-11.07c-2.1,3.18-3.33,6.98-3.33,11.07V425.99z"/>
			<path style="fill:#FFCC73;" d="M100.09,426c0,7.82,2.99,14.96,7.87,20.34c-8.67-2.7-14.99-10.8-14.99-20.35V33.14
				c0-3.22,1.37-6.12,3.56-8.17c2.19,2.05,3.56,4.95,3.56,8.17v75.34V426z"/>
			<path d="M387.61,33.14V426c0,16.7-13.59,30.29-30.29,30.29H325.9H145.67h-31.4H98.99c-16.71,0-30.31-13.59-30.31-30.3V33.14
				c0-11.14,9.07-20.2,20.21-20.2c0.47,0,36.52,0,36.52,0C127.06,5.55,133.66,0,141.54,0c4.42,0,8.57,1.72,11.7,4.84
				c2.26,2.26,3.77,5.06,4.44,8.1h25.64C184.97,5.55,191.57,0,199.45,0c4.42,0,8.58,1.72,11.7,4.84c2.26,2.26,3.77,5.06,4.44,8.1
				h25.65C242.88,5.55,249.48,0,257.37,0c4.42,0,8.57,1.72,11.7,4.84c2.25,2.26,3.76,5.06,4.44,8.1h25.64
				C300.8,5.55,307.4,0,315.28,0c4.42,0,8.58,1.72,11.7,4.84c2.26,2.26,3.77,5.06,4.44,8.1h35.98
				C378.55,12.94,387.61,22,387.61,33.14z M378.61,426V33.14c0-6.17-5.03-11.2-11.21-11.2h-35.58v12.97
				c8.17,2.03,14.25,9.4,14.25,18.19c0,10.34-8.41,18.75-18.75,18.75s-18.75-8.41-18.75-18.75c0-8.79,6.08-16.17,14.25-18.19V21.94
				h-48.91v12.97c8.17,2.03,14.25,9.4,14.25,18.19c0,10.34-8.41,18.75-18.75,18.75s-18.76-8.41-18.76-18.75
				c0-8.79,6.09-16.17,14.26-18.19V21.94H216v12.97c8.16,2.03,14.25,9.4,14.25,18.19c0,10.34-8.42,18.75-18.76,18.75
				c-10.34,0-18.75-8.41-18.75-18.75c0-8.79,6.08-16.17,14.26-18.19V21.94h-48.92v12.97c8.17,2.03,14.25,9.4,14.25,18.19
				c0,10.34-8.41,18.75-18.75,18.75s-18.76-8.41-18.76-18.75c0-8.79,6.09-16.17,14.26-18.19V21.94h-43.39
				c2.15,3.21,3.4,7.06,3.4,11.2v9.13V426c0,11.74,9.56,21.29,21.3,21.29h226.93C369.06,447.29,378.61,437.74,378.61,426z
				 M337.07,53.1c0-3.76-2.13-7.02-5.25-8.65v2.71c0,6.28-3.3,11.81-8.3,14.92c1.17,0.49,2.45,0.77,3.8,0.77
				C332.7,62.85,337.07,58.47,337.07,53.1z M322.82,47.16v-2.71c-3.12,1.63-5.25,4.89-5.25,8.65c0,0.64,0.06,1.27,0.18,1.88
				C320.75,53.64,322.82,50.64,322.82,47.16z M308.66,12.94h13.25c-0.34-0.63-0.77-1.21-1.29-1.73C319.19,9.78,317.3,9,315.28,9
				C312.43,9,309.94,10.59,308.66,12.94z M279.16,53.1c0-3.76-2.13-7.02-5.25-8.65v2.71c0,6.28-3.31,11.81-8.3,14.92
				c1.16,0.49,2.45,0.77,3.8,0.77C274.78,62.85,279.16,58.47,279.16,53.1z M264.91,47.16v-2.71c-3.12,1.63-5.26,4.89-5.26,8.65
				c0,0.64,0.07,1.27,0.19,1.88C262.84,53.64,264.91,50.64,264.91,47.16z M250.75,12.94H264c-0.35-0.63-0.78-1.21-1.3-1.73
				C261.28,9.78,259.38,9,257.37,9C254.51,9,252.02,10.59,250.75,12.94z M221.25,53.1c0-3.76-2.14-7.02-5.25-8.65v2.71
				c0,6.28-3.31,11.81-8.31,14.92c1.17,0.49,2.45,0.77,3.8,0.77C216.87,62.85,221.25,58.47,221.25,53.1z M207,47.16v-2.71
				c-3.12,1.63-5.26,4.89-5.26,8.65c0,0.64,0.07,1.27,0.19,1.88C204.92,53.64,207,50.64,207,47.16z M192.83,12.94h13.25
				c-0.34-0.63-0.77-1.21-1.29-1.73C203.36,9.78,201.47,9,199.45,9C196.6,9,194.11,10.59,192.83,12.94z M163.33,53.1
				c0-3.76-2.13-7.02-5.25-8.65v2.71c0,6.28-3.31,11.81-8.3,14.92c1.17,0.49,2.45,0.77,3.8,0.77
				C158.96,62.85,163.33,58.47,163.33,53.1z M149.08,47.16v-2.71c-3.12,1.63-5.26,4.89-5.26,8.65c0,0.64,0.07,1.27,0.19,1.88
				C147.01,53.64,149.08,50.64,149.08,47.16z M134.92,12.94h13.25c-0.34-0.63-0.78-1.21-1.3-1.73C145.45,9.78,143.56,9,141.54,9
				C138.68,9,136.2,10.59,134.92,12.94z M107.96,446.34c-4.88-5.38-7.87-12.52-7.87-20.34V108.48V33.14c0-3.22-1.37-6.12-3.56-8.17
				c-2.19,2.05-3.56,4.95-3.56,8.17v392.85C92.97,435.54,99.29,443.64,107.96,446.34z M91.45,445.89
				c-4.65-5.33-7.48-12.29-7.48-19.9V33.14c0-4.09,1.23-7.89,3.33-11.07c-5.43,0.77-9.62,5.44-9.62,11.07v392.85
				C77.68,435.08,83.42,442.84,91.45,445.89z"/>
			<rect x="166.88" y="208.27" width="153.95" height="9"/>
			<rect x="166.88" y="178.48" width="153.95" height="9"/>
		</g>
	</g>
</g>
<g>
</g>
<g>
</g>
<g>
</g>
<g>
</g>
<g>
</g>
<g>
</g>
<g>
</g>
<g>
</g>
<g>
</g>
<g>
</g>
<g>
</g>
<g>
</g>
<g>
</g>
<g>
</g>
<g>
</g>
</svg>
