<?xml version="1.0" encoding="iso-8859-1"?>
<!-- Generator: Adobe Illustrator 19.0.0, SVG Export Plug-In . SVG Version: 6.00 Build 0)  -->
<svg version="1.1" id="Layer_1" xmlns="http://www.w3.org/2000/svg" xmlns:xlink="http://www.w3.org/1999/xlink" x="0px" y="0px"
	 viewBox="0 0 512 512" style="enable-background:new 0 0 512 512;" xml:space="preserve">
<g>
	<g>
		<g>
			<path d="M502,154.5H10c-5.523,0-10,4.477-10,10v183c0,5.523,4.477,10,10,10h492c5.523,0,10-4.477,10-10v-183
				C512,158.977,507.523,154.5,502,154.5z M492,337.5h-62V299c0-5.523-4.477-10-10-10s-10,4.477-10,10v38.5h-62V291
				c0-5.523-4.477-10-10-10s-10,4.477-10,10v46.5h-62V299c0-5.523-4.477-10-10-10s-10,4.477-10,10v38.5h-62V291
				c0-5.523-4.477-10-10-10s-10,4.477-10,10v46.5h-62V299c0-5.523-4.477-10-10-10s-10,4.477-10,10v38.5H20v-163h472V337.5z"/>
			<path d="M92,269c5.523,0,10-4.477,10-10v-20c0-5.523-4.477-10-10-10s-10,4.477-10,10v20C82,264.523,86.477,269,92,269z"/>
			<path d="M256,269c5.523,0,10-4.477,10-10v-20c0-5.523-4.477-10-10-10s-10,4.477-10,10v20C246,264.523,250.477,269,256,269z"/>
			<path d="M420,269c5.523,0,10-4.477,10-10v-20c0-5.523-4.477-10-10-10s-10,4.477-10,10v20C410,264.523,414.477,269,420,269z"/>
		</g>
	</g>
</g>
<g>
</g>
<g>
</g>
<g>
</g>
<g>
</g>
<g>
</g>
<g>
</g>
<g>
</g>
<g>
</g>
<g>
</g>
<g>
</g>
<g>
</g>
<g>
</g>
<g>
</g>
<g>
</g>
<g>
</g>
</svg>
