<?xml version="1.0" encoding="iso-8859-1"?>
<!-- Generator: Adobe Illustrator 19.0.0, SVG Export Plug-In . SVG Version: 6.00 Build 0)  -->
<svg version="1.1" id="Layer_1" xmlns="http://www.w3.org/2000/svg" xmlns:xlink="http://www.w3.org/1999/xlink" x="0px" y="0px"
	 viewBox="0 0 512 512" style="enable-background:new 0 0 512 512;" xml:space="preserve">
<g>
	<g>
		<path d="M245.612,299.658V56.914C245.612,25.536,220.09,0,188.724,0c-31.367,0-56.889,25.536-56.889,56.914v242.745
			c-36.978,20.308-57.55,57.453-57.55,98.564c0,62.733,50.717,113.778,113.45,113.778c62.733,0,114.272-51.045,114.272-113.778
			C302.007,357.111,279.746,319.966,245.612,299.658z M187.404,489.244c-50.189,0-91.022-40.831-91.022-91.022
			c0-34.808,20.036-66.064,51.236-81.564c3.867-1.922,6.972-5.867,6.972-10.192V56.914c0-18.833,15.311-34.158,34.133-34.158
			s34.133,15.325,34.133,34.158v249.553c0,4.325,1.784,8.27,5.65,10.192c31.2,15.5,50.25,46.756,50.25,81.564
			C278.757,448.414,237.593,489.244,187.404,489.244z"/>
	</g>
</g>
<g>
	<g>
		<path d="M200.101,319.406V56.889c0-6.286-5.089-11.378-11.378-11.378c-6.289,0-11.378,5.092-11.378,11.378v262.517
			c-39.822,5.539-68.928,38.769-68.928,78.817c0,43.911,35.405,79.644,79.316,79.644c43.911,0,80.139-35.733,80.139-79.644
			C267.874,358.175,237.079,324.944,200.101,319.406z M187.404,455.111c-31.367,0-56.889-25.52-56.889-56.889
			c0-31.364,25.522-56.889,56.889-56.889c31.367,0,56.889,25.525,56.889,56.889C244.293,429.592,218.771,455.111,187.404,455.111z"
			/>
	</g>
</g>
<g>
	<g>
		<path d="M106.849,109.455c-0.567-1.475-1.366-2.622-2.389-3.753c-4.211-4.214-11.833-4.214-16.156,0
			c-1.022,1.131-1.822,2.278-2.389,3.753c-0.689,1.37-0.911,2.844-0.911,4.322c0,3.069,1.133,5.914,3.3,8.081
			c2.156,2.156,5,3.297,8.078,3.297c3.067,0,5.911-1.142,8.078-3.297c2.156-2.167,3.3-5.011,3.3-8.081
			C107.76,112.3,107.415,110.825,106.849,109.455z"/>
	</g>
</g>
<g>
	<g>
		<path d="M106.849,143.589c-0.567-1.475-1.366-2.622-2.389-3.753c-0.567-0.458-1.145-0.911-1.822-1.37
			c-0.567-0.453-1.256-0.797-1.933-1.019c-0.689-0.344-1.367-0.569-2.167-0.689c-3.633-0.789-7.622,0.453-10.233,3.078
			c-1.022,1.131-1.822,2.386-2.389,3.753c-0.689,1.37-0.911,2.844-0.911,4.322c0,3.069,1.133,5.914,3.3,8.081
			c2.156,2.156,5,3.297,8.078,3.297c3.067,0,5.911-1.142,8.078-3.297c2.156-2.167,3.3-5.011,3.3-8.081
			C107.76,146.433,107.415,144.958,106.849,143.589z"/>
	</g>
</g>
<g>
	<g>
		<path d="M106.849,211.855c-0.567-1.366-1.366-2.622-2.389-3.753c-4.322-4.214-11.944-4.214-16.156,0
			c-1.022,1.131-1.822,2.386-2.389,3.753c-0.689,1.37-0.911,2.844-0.911,4.322c0,1.481,0.222,2.958,0.911,4.325
			c0.567,1.364,1.367,2.608,2.389,3.756c2.156,2.156,5,3.297,8.078,3.297c3.067,0,5.911-1.142,8.078-3.297
			c1.022-1.147,1.822-2.392,2.389-3.756c0.567-1.367,0.911-2.844,0.911-4.325C107.76,214.7,107.415,213.225,106.849,211.855z"/>
	</g>
</g>
<g>
	<g>
		<path d="M104.46,242.236c-4.322-4.214-11.944-4.214-16.156,0c-2.056,2.153-3.3,5.122-3.3,8.075c0,1.481,0.344,2.958,0.911,4.325
			c0.567,1.364,1.367,2.608,2.389,3.755c2.156,2.156,5,3.297,8.078,3.297c1.478,0,2.956-0.342,4.322-0.911
			c1.366-0.567,2.611-1.364,3.755-2.386c1.022-1.147,1.822-2.392,2.389-3.755c0.567-1.367,0.911-2.844,0.911-4.325
			C107.76,247.358,106.504,244.389,104.46,242.236z"/>
	</g>
</g>
<g>
	<g>
		<path d="M106.849,177.722c-0.567-1.367-1.366-2.622-2.389-3.753c-4.211-4.214-11.944-4.214-16.156,0
			c-1.022,1.131-1.822,2.386-2.389,3.753c-0.689,1.37-0.911,2.844-0.911,4.322c0,1.481,0.222,2.958,0.911,4.325
			c0.567,1.364,1.367,2.608,2.389,3.755c2.156,2.156,5,3.297,8.078,3.297c3.067,0,5.911-1.142,8.078-3.297
			c2.156-2.167,3.3-5.011,3.3-8.081C107.76,180.566,107.415,179.092,106.849,177.722z"/>
	</g>
</g>
<g>
	<g>
		<path d="M377.682,26.278c-4.289-4.486-12.178-4.486-16.467,0c-6.145,6.434-60.033,63.914-60.033,98.878
			c0,37.644,30.622,68.267,68.267,68.267c37.644,0,68.267-30.622,68.267-68.267C437.715,90.192,383.826,32.711,377.682,26.278z
			 M369.449,170.667c-25.1,0-45.511-20.408-45.511-45.511c0-17.111,25.278-51.319,45.511-74.189
			c20.244,22.859,45.511,57.058,45.511,74.189C414.96,150.258,394.549,170.667,369.449,170.667z"/>
	</g>
</g>
<g>
</g>
<g>
</g>
<g>
</g>
<g>
</g>
<g>
</g>
<g>
</g>
<g>
</g>
<g>
</g>
<g>
</g>
<g>
</g>
<g>
</g>
<g>
</g>
<g>
</g>
<g>
</g>
<g>
</g>
</svg>
