<?xml version="1.0" encoding="utf-8"?>
<!-- Svg Vector Icons : http://www.onlinewebfonts.com/icon -->
<!DOCTYPE svg PUBLIC "-//W3C//DTD SVG 1.1//EN" "http://www.w3.org/Graphics/SVG/1.1/DTD/svg11.dtd">
<svg version="1.1" xmlns="http://www.w3.org/2000/svg" xmlns:xlink="http://www.w3.org/1999/xlink" x="0px" y="0px" viewBox="0 0 1000 1000" enable-background="new 0 0 1000 1000" xml:space="preserve">
<metadata> Svg Vector Icons : http://www.onlinewebfonts.com/icon </metadata>
<g><g transform="translate(0.000000,512.000000) scale(0.100000,-0.100000)"><path d="M5701.3,4997.4c-34.5-26.8-36.4-59.4-42.1-640.1c-3.8-375.6,1.9-630.5,13.4-661.1c28.7-72.8,113.1-90.1,159.1-32.6c32.6,38.3,34.5,90.1,34.5,659.2c0,527-3.8,622.8-30.7,659.2C5802.9,5030,5755,5035.7,5701.3,4997.4z"/><path d="M9622.1,3489.2c-26.8-9.6-325.8-295.1-665-634.3c-567.2-567.2-619-613.2-651.6-588.3c-19.2,15.3-86.2,69-149.5,120.7c-354.5,291.3-868.1,557.7-1330,689.9c-369.8,105.4-661.1,145.6-1059.7,145.6c-1970,0-3598.9-1462.2-3830.8-3437.9c-28.7-243.4-11.5-866.2,28.7-1084.6c126.5-678.4,387.1-1257.1,795.3-1770.7l120.7-151.4L2267.2-3837c-337.3-337.3-622.8-634.3-634.3-657.3c-70.9-139.9,63.2-312.3,226.1-285.5c57.5,9.6,157.1,99.6,693.7,636.2l626.6,626.6l159.1-132.2c747.4-605.6,1707.5-914.1,2654.1-850.9c287.5,19.2,440.8,42.1,701.4,107.3c1096.1,272.1,2048.6,1055.9,2539.2,2088.8c619,1306.9,454.2,2887.9-419.7,4014.8c-67.1,86.2-132.2,172.5-147.6,193.6c-24.9,34.5,13.4,78.6,603.7,668.8l630.5,630.5v86.2c0,69-11.5,95.8-57.5,143.7C9777.3,3496.9,9693.1,3519.9,9622.1,3489.2z M6431.4,2743.8c421.6-90.1,849-264.5,1186.2-484.8c155.2-103.5,400.5-291.3,410.1-316.2c1.9-7.7-1086.6-1103.8-2416.5-2433.8L3188.9-2913.3L3118-2829c-130.3,147.6-352.6,500.2-448.4,705.2c-249.1,532.7-343,1002.2-323.9,1607.8c24.9,780,279.8,1458.3,774.2,2065.8c519.3,640.1,1239.9,1059.7,2085,1213C5500.1,2814.7,6143.9,2807,6431.4,2743.8z M8430.2,1526.9c498.3-632.4,751.2-1356.8,751.2-2154c0-306.6-32.6-594.1-97.7-848.9C8756-2771.5,7717.3-3760.3,6410.3-4022.8c-262.5-51.8-785.7-70.9-1055.9-38.3c-624.7,76.7-1236.1,331.5-1699.8,709.1c-74.7,59.4-143.7,113-153.3,120.7c-19.2,13.4,4810,4865.6,4836.9,4861.8C8343.9,1630.4,8384.2,1584.4,8430.2,1526.9z"/><path d="M6205.3-1180.9C5091.9-2294.3,4179.7-3216.1,4179.7-3225.6c0-42.2,61.3-105.4,101.6-105.4c57.5,0,4076.1,4016.7,4076.1,4074.2c0,44.1-55.6,103.5-97.7,103.5C8244.3,846.6,7320.6-65.6,6205.3-1180.9z"/><path d="M6843.4-1627.4C5045.9-3407.7,5003.7-3449.9,5003.7-3490.1c0-38.3,63.2-90.1,107.3-90.1c24.9,0,643.9,599.8,1782.2,1728.5c958.2,950.5,1751.6,1745.8,1763,1766.9c34.5,59.4-15.3,145.7-84.3,145.7C8556.6,60.9,7778.6-698,6843.4-1627.4z"/><path d="M7230.5-2244.5C6143.9-3331,5923.6-3561,5923.6-3603.2c0-51.7,44.1-92,99.7-92c26.8,0,2610.1,2571.7,2642.6,2631.1c26.8,47.9-26.8,128.4-84.3,128.4C8550.9-935.6,8181-1294,7230.5-2244.5z"/><path d="M7853.4-2579.8C7656-2779.2,7495-2955.4,7495-2974.6c0-63.3,38.3-107.3,92-107.3c44.1,0,118.8,67.1,412,360.3c197.4,199.3,358.3,375.6,358.3,394.8c0,63.2-38.3,107.3-92,107.3C8221.3-2219.6,8146.5-2286.6,7853.4-2579.8z"/><path d="M1765.1,3357c-21.1-21.1-38.3-53.7-38.3-70.9c0-17.2,201.2-235.7,448.4-481c364.1-366,456.1-448.4,498.3-448.4c67.1,0,93.9,24.9,93.9,92c0,42.1-84.3,134.1-450.3,498.2c-245.3,247.2-463.7,448.4-481,448.4C1818.7,3395.3,1786.2,3378.1,1765.1,3357z"/><path d="M140-563.8c-51.7-36.4-53.7-92-3.8-141.8c36.4-36.4,63.2-38.3,657.3-38.3c670.7,0,703.3,3.8,703.3,105.4c0,99.6-32.6,105.4-699.5,105.4C272.3-533.2,176.4-537,140-563.8z"/></g></g>
</svg>