<?xml version="1.0" encoding="iso-8859-1"?>
<!-- Generator: Adobe Illustrator 19.0.0, SVG Export Plug-In . SVG Version: 6.00 Build 0)  -->
<svg version="1.1" id="Layer_1" xmlns="http://www.w3.org/2000/svg" xmlns:xlink="http://www.w3.org/1999/xlink" x="0px" y="0px"
	 viewBox="0 0 512 512" style="enable-background:new 0 0 512 512;" xml:space="preserve">
<g>
	<g>
		<g>
			<path d="M315.733,221.867H196.267c-4.71,0-8.533,3.823-8.533,8.533c0,4.71,3.823,8.533,8.533,8.533h119.467
				c4.719,0,8.533-3.823,8.533-8.533C324.267,225.69,320.452,221.867,315.733,221.867z"/>
			<path d="M486.4,136.533h-17.067c-3.371,0-6.579,0.691-9.515,1.877c-2.961-10.88-12.817-18.944-24.619-18.944h-17.067
				c-3.371,0-6.579,0.691-9.515,1.877C405.658,110.464,395.802,102.4,384,102.4h-17.067c-14.114,0-25.6,11.486-25.6,25.6v256
				c0,14.114,11.486,25.6,25.6,25.6H384c11.802,0,21.658-8.064,24.619-18.944c2.935,1.186,6.144,1.877,9.515,1.877H435.2
				c14.114,0,25.6-11.486,25.6-25.6v-10.112c2.679,0.964,5.521,1.579,8.533,1.579H486.4c14.114,0,25.6-11.486,25.6-25.6V162.133
				C512,148.019,500.514,136.533,486.4,136.533z M392.533,145.067v221.867V384c0,4.702-3.823,8.533-8.533,8.533h-17.067
				c-4.71,0-8.533-3.831-8.533-8.533V128c0-4.702,3.823-8.533,8.533-8.533H384c4.71,0,8.533,3.831,8.533,8.533V145.067z
				 M443.733,162.133V332.8v34.133c0,4.702-3.823,8.533-8.533,8.533h-17.067c-4.71,0-8.533-3.831-8.533-8.533V145.067
				c0-4.702,3.823-8.533,8.533-8.533H435.2c4.71,0,8.533,3.831,8.533,8.533V162.133z M494.933,332.8
				c0,4.702-3.823,8.533-8.533,8.533h-17.067c-4.71,0-8.533-3.831-8.533-8.533V162.133c0-4.702,3.823-8.533,8.533-8.533H486.4
				c4.71,0,8.533,3.831,8.533,8.533V332.8z"/>
			<path d="M145.067,102.4H128c-11.802,0-21.666,8.064-24.61,18.944c-2.953-1.186-6.153-1.877-9.523-1.877H76.8
				c-14.114,0-25.6,11.486-25.6,25.6v10.103c-2.68-0.956-5.521-1.57-8.533-1.57H25.6C11.486,153.6,0,165.086,0,179.2v170.667
				c0,14.114,11.486,25.6,25.6,25.6h17.067c3.371,0,6.571-0.691,9.523-1.877c2.944,10.88,12.809,18.944,24.61,18.944h17.067
				c3.371,0,6.571-0.691,9.523-1.877c2.944,10.88,12.809,18.944,24.61,18.944h17.067c14.114,0,25.6-11.486,25.6-25.6V128
				C170.667,113.886,159.181,102.4,145.067,102.4z M51.2,349.867c0,4.702-3.831,8.533-8.533,8.533H25.6
				c-4.702,0-8.533-3.831-8.533-8.533V179.2c0-4.702,3.831-8.533,8.533-8.533h17.067c4.702,0,8.533,3.831,8.533,8.533V349.867z
				 M102.4,366.933c0,4.702-3.831,8.533-8.533,8.533H76.8c-4.702,0-8.533-3.831-8.533-8.533v-17.067V179.2v-34.133
				c0-4.702,3.831-8.533,8.533-8.533h17.067c4.702,0,8.533,3.831,8.533,8.533V366.933z M153.6,384c0,4.702-3.831,8.533-8.533,8.533
				H128c-4.702,0-8.533-3.831-8.533-8.533v-17.067V145.067V128c0-4.702,3.831-8.533,8.533-8.533h17.067
				c4.702,0,8.533,3.831,8.533,8.533V384z"/>
			<path d="M315.733,273.067H196.267c-4.71,0-8.533,3.823-8.533,8.533c0,4.71,3.823,8.533,8.533,8.533h119.467
				c4.719,0,8.533-3.823,8.533-8.533C324.267,276.89,320.452,273.067,315.733,273.067z"/>
		</g>
	</g>
</g>
<g>
</g>
<g>
</g>
<g>
</g>
<g>
</g>
<g>
</g>
<g>
</g>
<g>
</g>
<g>
</g>
<g>
</g>
<g>
</g>
<g>
</g>
<g>
</g>
<g>
</g>
<g>
</g>
<g>
</g>
</svg>
